<mxfile host="app.diagrams.net" agent="Mozilla/5.0 (Windows NT 10.0; Win64; x64) AppleWebKit/537.36 (KHTML, like Gecko) Chrome/131.0.0.0 Safari/537.36" version="25.0.3">
  <diagram name="Page-1" id="1wOOW7Dl0PznrCnnMcAE">
    <mxGraphModel dx="1868" dy="1827" grid="1" gridSize="10" guides="1" tooltips="1" connect="1" arrows="1" fold="1" page="1" pageScale="1" pageWidth="850" pageHeight="1100" math="0" shadow="0">
      <root>
        <mxCell id="0" />
        <mxCell id="1" parent="0" />
        <mxCell id="5c231J3DRyJvn7_VuuGQ-4" value="" style="edgeStyle=orthogonalEdgeStyle;rounded=0;orthogonalLoop=1;jettySize=auto;html=1;" edge="1" parent="1" source="5c231J3DRyJvn7_VuuGQ-2" target="5c231J3DRyJvn7_VuuGQ-3">
          <mxGeometry relative="1" as="geometry" />
        </mxCell>
        <mxCell id="5c231J3DRyJvn7_VuuGQ-2" value="Start" style="ellipse;whiteSpace=wrap;html=1;" vertex="1" parent="1">
          <mxGeometry x="285" y="-80" width="120" height="50" as="geometry" />
        </mxCell>
        <mxCell id="5c231J3DRyJvn7_VuuGQ-8" value="" style="edgeStyle=orthogonalEdgeStyle;rounded=0;orthogonalLoop=1;jettySize=auto;html=1;" edge="1" parent="1" source="5c231J3DRyJvn7_VuuGQ-3" target="5c231J3DRyJvn7_VuuGQ-7">
          <mxGeometry relative="1" as="geometry" />
        </mxCell>
        <mxCell id="5c231J3DRyJvn7_VuuGQ-3" value="&lt;span style=&quot;text-wrap-mode: nowrap;&quot;&gt;Inisialisasi Sensor dan Pin&lt;/span&gt;" style="whiteSpace=wrap;html=1;" vertex="1" parent="1">
          <mxGeometry x="270" y="10" width="150" height="60" as="geometry" />
        </mxCell>
        <mxCell id="5c231J3DRyJvn7_VuuGQ-10" value="" style="edgeStyle=orthogonalEdgeStyle;rounded=0;orthogonalLoop=1;jettySize=auto;html=1;" edge="1" parent="1" source="5c231J3DRyJvn7_VuuGQ-7" target="5c231J3DRyJvn7_VuuGQ-9">
          <mxGeometry relative="1" as="geometry" />
        </mxCell>
        <mxCell id="5c231J3DRyJvn7_VuuGQ-7" value="&lt;span style=&quot;text-wrap-mode: nowrap;&quot;&gt;Menghubungkan ke WiFi&lt;/span&gt;" style="whiteSpace=wrap;html=1;" vertex="1" parent="1">
          <mxGeometry x="460" y="10" width="150" height="60" as="geometry" />
        </mxCell>
        <mxCell id="5c231J3DRyJvn7_VuuGQ-12" value="" style="edgeStyle=orthogonalEdgeStyle;rounded=0;orthogonalLoop=1;jettySize=auto;html=1;" edge="1" parent="1" source="5c231J3DRyJvn7_VuuGQ-9" target="5c231J3DRyJvn7_VuuGQ-11">
          <mxGeometry relative="1" as="geometry" />
        </mxCell>
        <mxCell id="5c231J3DRyJvn7_VuuGQ-9" value="&lt;span style=&quot;text-wrap-mode: nowrap;&quot;&gt;Menghubungkan ke Blynk&lt;/span&gt;" style="whiteSpace=wrap;html=1;" vertex="1" parent="1">
          <mxGeometry x="650" y="10" width="145" height="60" as="geometry" />
        </mxCell>
        <mxCell id="5c231J3DRyJvn7_VuuGQ-14" value="" style="edgeStyle=orthogonalEdgeStyle;rounded=0;orthogonalLoop=1;jettySize=auto;html=1;" edge="1" parent="1" source="5c231J3DRyJvn7_VuuGQ-11" target="5c231J3DRyJvn7_VuuGQ-13">
          <mxGeometry relative="1" as="geometry" />
        </mxCell>
        <mxCell id="5c231J3DRyJvn7_VuuGQ-11" value="&lt;span style=&quot;text-wrap-mode: nowrap;&quot;&gt;Loop Start&lt;/span&gt;" style="whiteSpace=wrap;html=1;" vertex="1" parent="1">
          <mxGeometry x="820" y="10" width="120" height="60" as="geometry" />
        </mxCell>
        <mxCell id="5c231J3DRyJvn7_VuuGQ-16" value="" style="edgeStyle=orthogonalEdgeStyle;rounded=0;orthogonalLoop=1;jettySize=auto;html=1;" edge="1" parent="1" source="5c231J3DRyJvn7_VuuGQ-13" target="5c231J3DRyJvn7_VuuGQ-15">
          <mxGeometry relative="1" as="geometry" />
        </mxCell>
        <mxCell id="5c231J3DRyJvn7_VuuGQ-13" value="&lt;span style=&quot;text-wrap-mode: nowrap;&quot;&gt;Membaca Suhu dan&amp;nbsp;&lt;/span&gt;&lt;div&gt;&lt;span style=&quot;text-wrap-mode: nowrap;&quot;&gt;Kelembapan Udara (DHT Sensor)&lt;/span&gt;&lt;/div&gt;" style="whiteSpace=wrap;html=1;" vertex="1" parent="1">
          <mxGeometry x="778.75" y="115" width="202.5" height="60" as="geometry" />
        </mxCell>
        <mxCell id="5c231J3DRyJvn7_VuuGQ-18" value="" style="edgeStyle=orthogonalEdgeStyle;rounded=0;orthogonalLoop=1;jettySize=auto;html=1;" edge="1" parent="1" source="5c231J3DRyJvn7_VuuGQ-15" target="5c231J3DRyJvn7_VuuGQ-17">
          <mxGeometry relative="1" as="geometry" />
        </mxCell>
        <mxCell id="5c231J3DRyJvn7_VuuGQ-15" value="&lt;span style=&quot;text-wrap-mode: nowrap;&quot;&gt;Membaca Kelembapan Tanah&amp;nbsp;&lt;/span&gt;&lt;div&gt;&lt;span style=&quot;text-wrap-mode: nowrap;&quot;&gt;(Analog ke Persentase)&lt;/span&gt;&lt;/div&gt;" style="whiteSpace=wrap;html=1;" vertex="1" parent="1">
          <mxGeometry x="570" y="115" width="170" height="60" as="geometry" />
        </mxCell>
        <mxCell id="5c231J3DRyJvn7_VuuGQ-48" value="" style="edgeStyle=orthogonalEdgeStyle;rounded=0;orthogonalLoop=1;jettySize=auto;html=1;" edge="1" parent="1" source="5c231J3DRyJvn7_VuuGQ-17" target="5c231J3DRyJvn7_VuuGQ-47">
          <mxGeometry relative="1" as="geometry">
            <Array as="points">
              <mxPoint x="359" y="230" />
              <mxPoint x="359" y="230" />
            </Array>
          </mxGeometry>
        </mxCell>
        <mxCell id="5c231J3DRyJvn7_VuuGQ-51" value="" style="edgeStyle=orthogonalEdgeStyle;rounded=0;orthogonalLoop=1;jettySize=auto;html=1;" edge="1" parent="1" source="5c231J3DRyJvn7_VuuGQ-17" target="5c231J3DRyJvn7_VuuGQ-50">
          <mxGeometry relative="1" as="geometry" />
        </mxCell>
        <mxCell id="5c231J3DRyJvn7_VuuGQ-17" value="&lt;span style=&quot;text-wrap-mode: nowrap;&quot;&gt;Error: Gagal&amp;nbsp;&lt;/span&gt;&lt;div&gt;&lt;span style=&quot;text-wrap-mode: nowrap;&quot;&gt;Membaca DHT?&lt;/span&gt;&lt;/div&gt;" style="rhombus;whiteSpace=wrap;html=1;" vertex="1" parent="1">
          <mxGeometry x="297.5" y="90" width="122.5" height="110" as="geometry" />
        </mxCell>
        <mxCell id="5c231J3DRyJvn7_VuuGQ-32" value="" style="edgeStyle=orthogonalEdgeStyle;rounded=0;orthogonalLoop=1;jettySize=auto;html=1;" edge="1" parent="1" source="5c231J3DRyJvn7_VuuGQ-27" target="5c231J3DRyJvn7_VuuGQ-31">
          <mxGeometry relative="1" as="geometry" />
        </mxCell>
        <mxCell id="5c231J3DRyJvn7_VuuGQ-34" value="" style="edgeStyle=orthogonalEdgeStyle;rounded=0;orthogonalLoop=1;jettySize=auto;html=1;" edge="1" parent="1" source="5c231J3DRyJvn7_VuuGQ-27" target="5c231J3DRyJvn7_VuuGQ-33">
          <mxGeometry relative="1" as="geometry">
            <Array as="points">
              <mxPoint x="184" y="405" />
            </Array>
          </mxGeometry>
        </mxCell>
        <mxCell id="5c231J3DRyJvn7_VuuGQ-27" value="&lt;span style=&quot;text-wrap-mode: nowrap;&quot;&gt;Kelembapan Tanah&amp;nbsp;&lt;/span&gt;&lt;div&gt;&lt;span style=&quot;text-wrap-mode: nowrap;&quot;&gt;&amp;lt; DRY_THRESHOLD?&lt;/span&gt;&lt;/div&gt;" style="rhombus;whiteSpace=wrap;html=1;rounded=0;" vertex="1" parent="1">
          <mxGeometry x="271.87" y="350" width="173.75" height="110" as="geometry" />
        </mxCell>
        <mxCell id="5c231J3DRyJvn7_VuuGQ-59" style="edgeStyle=orthogonalEdgeStyle;rounded=0;orthogonalLoop=1;jettySize=auto;html=1;entryX=0.5;entryY=0;entryDx=0;entryDy=0;" edge="1" parent="1" source="5c231J3DRyJvn7_VuuGQ-31" target="5c231J3DRyJvn7_VuuGQ-40">
          <mxGeometry relative="1" as="geometry" />
        </mxCell>
        <mxCell id="5c231J3DRyJvn7_VuuGQ-31" value="&lt;span style=&quot;text-wrap-mode: nowrap;&quot;&gt;Nyalakan Pompa (Relay)&lt;/span&gt;&lt;div&gt;LED Merah ON&lt;/div&gt;&lt;div&gt;LED Hijau OFF&amp;nbsp;&amp;nbsp;&lt;span style=&quot;text-wrap-mode: nowrap;&quot;&gt;&lt;/span&gt;&lt;/div&gt;" style="whiteSpace=wrap;html=1;rounded=0;" vertex="1" parent="1">
          <mxGeometry x="500" y="375" width="140" height="60" as="geometry" />
        </mxCell>
        <mxCell id="5c231J3DRyJvn7_VuuGQ-65" style="edgeStyle=orthogonalEdgeStyle;rounded=0;orthogonalLoop=1;jettySize=auto;html=1;entryX=0.5;entryY=0;entryDx=0;entryDy=0;" edge="1" parent="1" source="5c231J3DRyJvn7_VuuGQ-33" target="5c231J3DRyJvn7_VuuGQ-35">
          <mxGeometry relative="1" as="geometry">
            <Array as="points">
              <mxPoint x="55" y="510" />
            </Array>
          </mxGeometry>
        </mxCell>
        <mxCell id="5c231J3DRyJvn7_VuuGQ-70" style="edgeStyle=orthogonalEdgeStyle;rounded=0;orthogonalLoop=1;jettySize=auto;html=1;entryX=0.5;entryY=0;entryDx=0;entryDy=0;" edge="1" parent="1" source="5c231J3DRyJvn7_VuuGQ-33" target="5c231J3DRyJvn7_VuuGQ-66">
          <mxGeometry relative="1" as="geometry" />
        </mxCell>
        <mxCell id="5c231J3DRyJvn7_VuuGQ-33" value="&lt;span style=&quot;text-wrap-mode: nowrap;&quot;&gt;Kelembapan Tanah&amp;nbsp;&lt;/span&gt;&lt;div&gt;&lt;span style=&quot;text-wrap-mode: nowrap;&quot;&gt;&amp;gt; WET_THRESHOLD?&lt;/span&gt;&lt;/div&gt;" style="rhombus;whiteSpace=wrap;html=1;rounded=0;" vertex="1" parent="1">
          <mxGeometry x="99.37" y="460" width="170.01" height="100" as="geometry" />
        </mxCell>
        <mxCell id="5c231J3DRyJvn7_VuuGQ-73" style="edgeStyle=orthogonalEdgeStyle;rounded=0;orthogonalLoop=1;jettySize=auto;html=1;entryX=0.5;entryY=0;entryDx=0;entryDy=0;" edge="1" parent="1" source="5c231J3DRyJvn7_VuuGQ-35" target="5c231J3DRyJvn7_VuuGQ-72">
          <mxGeometry relative="1" as="geometry" />
        </mxCell>
        <mxCell id="5c231J3DRyJvn7_VuuGQ-35" value="&lt;span style=&quot;text-wrap-mode: nowrap;&quot;&gt;Matikan Pompa,&amp;nbsp;&lt;/span&gt;&lt;div&gt;&lt;div&gt;LED Merah OFF&lt;/div&gt;&lt;div&gt;LED Hijau ON&lt;/div&gt;&lt;/div&gt;" style="whiteSpace=wrap;html=1;rounded=0;" vertex="1" parent="1">
          <mxGeometry x="-10.000000000000009" y="580" width="130" height="60" as="geometry" />
        </mxCell>
        <mxCell id="5c231J3DRyJvn7_VuuGQ-40" value="&lt;span style=&quot;text-wrap-mode: nowrap;&quot;&gt;Tunggu 2 Detik&lt;/span&gt;" style="whiteSpace=wrap;html=1;rounded=0;" vertex="1" parent="1">
          <mxGeometry x="510" y="463" width="120" height="60" as="geometry" />
        </mxCell>
        <mxCell id="5c231J3DRyJvn7_VuuGQ-45" value="" style="edgeStyle=orthogonalEdgeStyle;rounded=0;orthogonalLoop=1;jettySize=auto;html=1;" edge="1" parent="1" source="5c231J3DRyJvn7_VuuGQ-42" target="5c231J3DRyJvn7_VuuGQ-44">
          <mxGeometry relative="1" as="geometry" />
        </mxCell>
        <mxCell id="5c231J3DRyJvn7_VuuGQ-42" value="&lt;span style=&quot;text-wrap-mode: nowrap;&quot;&gt;Loop End (Ulangi)&lt;/span&gt;" style="whiteSpace=wrap;html=1;rounded=0;" vertex="1" parent="1">
          <mxGeometry x="297.5" y="880" width="120" height="60" as="geometry" />
        </mxCell>
        <mxCell id="5c231J3DRyJvn7_VuuGQ-44" value="&lt;span style=&quot;text-wrap-mode: nowrap;&quot;&gt;End&lt;/span&gt;" style="ellipse;whiteSpace=wrap;html=1;rounded=0;" vertex="1" parent="1">
          <mxGeometry x="271.87" y="970" width="170" height="50" as="geometry" />
        </mxCell>
        <mxCell id="5c231J3DRyJvn7_VuuGQ-49" style="edgeStyle=orthogonalEdgeStyle;rounded=0;orthogonalLoop=1;jettySize=auto;html=1;entryX=0.5;entryY=0;entryDx=0;entryDy=0;" edge="1" parent="1" source="5c231J3DRyJvn7_VuuGQ-47" target="5c231J3DRyJvn7_VuuGQ-27">
          <mxGeometry relative="1" as="geometry" />
        </mxCell>
        <mxCell id="5c231J3DRyJvn7_VuuGQ-47" value="&lt;span style=&quot;text-wrap-mode: nowrap;&quot;&gt;Kirim Data ke Blynk&lt;/span&gt;" style="whiteSpace=wrap;html=1;" vertex="1" parent="1">
          <mxGeometry x="298.75" y="240" width="120" height="60" as="geometry" />
        </mxCell>
        <mxCell id="5c231J3DRyJvn7_VuuGQ-50" value="&lt;span style=&quot;text-wrap-mode: nowrap;&quot;&gt;Cetak Error ke&amp;nbsp;&lt;/span&gt;&lt;div&gt;&lt;span style=&quot;text-wrap-mode: nowrap;&quot;&gt;Serial Monitor&lt;/span&gt;&lt;/div&gt;" style="whiteSpace=wrap;html=1;" vertex="1" parent="1">
          <mxGeometry x="110.01" y="115" width="120" height="60" as="geometry" />
        </mxCell>
        <mxCell id="5c231J3DRyJvn7_VuuGQ-53" value="YA" style="text;html=1;align=center;verticalAlign=middle;resizable=0;points=[];autosize=1;strokeColor=none;fillColor=none;" vertex="1" parent="1">
          <mxGeometry x="250" y="118" width="40" height="30" as="geometry" />
        </mxCell>
        <mxCell id="5c231J3DRyJvn7_VuuGQ-54" value="TIDAK" style="text;html=1;align=center;verticalAlign=middle;resizable=0;points=[];autosize=1;strokeColor=none;fillColor=none;" vertex="1" parent="1">
          <mxGeometry x="350" y="200" width="60" height="30" as="geometry" />
        </mxCell>
        <mxCell id="5c231J3DRyJvn7_VuuGQ-55" value="TIDAK" style="text;html=1;align=center;verticalAlign=middle;resizable=0;points=[];autosize=1;strokeColor=none;fillColor=none;" vertex="1" parent="1">
          <mxGeometry x="220" y="378" width="60" height="30" as="geometry" />
        </mxCell>
        <mxCell id="5c231J3DRyJvn7_VuuGQ-56" value="YA" style="text;html=1;align=center;verticalAlign=middle;resizable=0;points=[];autosize=1;strokeColor=none;fillColor=none;" vertex="1" parent="1">
          <mxGeometry x="450" y="368" width="40" height="30" as="geometry" />
        </mxCell>
        <mxCell id="5c231J3DRyJvn7_VuuGQ-57" value="YA" style="text;html=1;align=center;verticalAlign=middle;resizable=0;points=[];autosize=1;strokeColor=none;fillColor=none;" vertex="1" parent="1">
          <mxGeometry x="70" y="478" width="40" height="30" as="geometry" />
        </mxCell>
        <mxCell id="5c231J3DRyJvn7_VuuGQ-69" value="" style="edgeStyle=orthogonalEdgeStyle;rounded=0;orthogonalLoop=1;jettySize=auto;html=1;" edge="1" parent="1" source="5c231J3DRyJvn7_VuuGQ-66" target="5c231J3DRyJvn7_VuuGQ-68">
          <mxGeometry relative="1" as="geometry" />
        </mxCell>
        <mxCell id="5c231J3DRyJvn7_VuuGQ-66" value="Tanah Lembap&amp;nbsp;" style="rhombus;whiteSpace=wrap;html=1;rounded=0;" vertex="1" parent="1">
          <mxGeometry x="293.74" y="590" width="130" height="80" as="geometry" />
        </mxCell>
        <mxCell id="5c231J3DRyJvn7_VuuGQ-75" style="edgeStyle=orthogonalEdgeStyle;rounded=0;orthogonalLoop=1;jettySize=auto;html=1;entryX=0.5;entryY=0;entryDx=0;entryDy=0;" edge="1" parent="1" source="5c231J3DRyJvn7_VuuGQ-68" target="5c231J3DRyJvn7_VuuGQ-74">
          <mxGeometry relative="1" as="geometry" />
        </mxCell>
        <mxCell id="5c231J3DRyJvn7_VuuGQ-68" value="Pompa OFF&lt;div&gt;LED Hijau ON&lt;/div&gt;&lt;div&gt;LED Merah OFF&amp;nbsp;&lt;/div&gt;" style="whiteSpace=wrap;html=1;rounded=0;" vertex="1" parent="1">
          <mxGeometry x="298.74" y="700" width="120" height="60" as="geometry" />
        </mxCell>
        <mxCell id="5c231J3DRyJvn7_VuuGQ-71" value="TIDAK" style="text;html=1;align=center;verticalAlign=middle;resizable=0;points=[];autosize=1;strokeColor=none;fillColor=none;" vertex="1" parent="1">
          <mxGeometry x="250" y="478" width="60" height="30" as="geometry" />
        </mxCell>
        <mxCell id="5c231J3DRyJvn7_VuuGQ-72" value="&lt;span style=&quot;text-wrap-mode: nowrap;&quot;&gt;Tunggu 2 Detik&lt;/span&gt;" style="whiteSpace=wrap;html=1;rounded=0;" vertex="1" parent="1">
          <mxGeometry x="-5" y="680" width="120" height="60" as="geometry" />
        </mxCell>
        <mxCell id="5c231J3DRyJvn7_VuuGQ-76" style="edgeStyle=orthogonalEdgeStyle;rounded=0;orthogonalLoop=1;jettySize=auto;html=1;entryX=0.5;entryY=0;entryDx=0;entryDy=0;" edge="1" parent="1" source="5c231J3DRyJvn7_VuuGQ-74" target="5c231J3DRyJvn7_VuuGQ-42">
          <mxGeometry relative="1" as="geometry" />
        </mxCell>
        <mxCell id="5c231J3DRyJvn7_VuuGQ-74" value="&lt;span style=&quot;text-wrap-mode: nowrap;&quot;&gt;Tunggu 2 Detik&lt;/span&gt;" style="whiteSpace=wrap;html=1;rounded=0;" vertex="1" parent="1">
          <mxGeometry x="297.5" y="790" width="120" height="60" as="geometry" />
        </mxCell>
      </root>
    </mxGraphModel>
  </diagram>
</mxfile>
